<svg xmlns="http://www.w3.org/2000/svg" width="100" height="100" viewBox="0 0 100 100" fill="none"><rect width="100" height="100" fill="#F5F5F5"></rect><g clip-path="url(#clip0_0_1)"><rect width="1728" height="2200" transform="translate(-795 -1449)" fill="black"></rect><rect x="-697" y="-754" width="900" height="900" rx="24" fill="url(#paint0_linear_0_1)" fill-opacity="0.2"></rect></g><path d="M74.8071 49.0448C74.6799 48.7375 74.4958 48.4607 74.2642 48.2297L51.7673 25.7327C50.7986 24.7968 49.2627 24.7968 48.2938 25.7327C47.3007 26.6919 47.2733 28.2745 48.2324 29.2676L66.4651 47.5L27.5 47.5C26.1194 47.5 25 48.6194 25 50C25 51.3806 26.1194 52.5 27.5 52.5L66.4651 52.5L48.2324 70.7324C47.7637 71.2012 47.5003 71.8369 47.5003 72.4997C47.5 73.8803 48.6194 74.9997 50 75C50.6631 75.0006 51.2991 74.7372 51.7673 74.2676L74.2661 51.7688C74.4974 51.5378 74.6802 51.2613 74.8071 50.9546C74.9268 50.6644 74.9841 50.3574 74.9902 50.0485C74.9905 50.0314 75 50.0171 75 50C75 49.9881 74.9936 49.978 74.9933 49.9661C74.989 49.6524 74.9289 49.3393 74.8071 49.0448ZM50 0C22.3859 0 0 22.3859 0 50C0 77.6141 22.3859 100 50 100C77.6007 99.9677 99.9677 77.6007 100 50C100 22.3859 77.6141 0 50 0ZM50 95C25.1471 95 5 74.8529 5 50C5 25.1471 25.1471 5 50 5C74.8413 5.02808 94.9719 25.1587 95 50C95 74.8529 74.8529 95 50 95Z" fill="white"></path><defs><linearGradient id="paint0_linear_0_1" x1="-247" y1="-754" x2="-247" y2="146" gradientUnits="userSpaceOnUse"><stop stop-color="#DAE3E9"></stop><stop offset="0.656256" stop-color="#DAE3E9" stop-opacity="0.343744"></stop><stop offset="1" stop-color="#DAE3E9" stop-opacity="0"></stop></linearGradient><clipPath id="clip0_0_1"><rect width="1728" height="2200" fill="white" transform="translate(-795 -1449)"></rect></clipPath></defs></svg>